<svg width="82" height="24" viewBox="0 0 82 24" fill="none" xmlns="http://www.w3.org/2000/svg">
<path d="M7.58365 14.9863V21.0769C7.58365 21.3104 7.4909 21.5343 7.32579 21.6993C7.16077 21.8644 6.93686 21.9572 6.70334 21.9572C6.46991 21.9572 6.246 21.8644 6.08089 21.6993C5.91578 21.5343 5.82303 21.3104 5.82303 21.0769V14.9947C6.06817 15.1737 6.362 15.2737 6.66543 15.2811C6.99616 15.2906 7.32023 15.1865 7.58365 14.9863ZM15.081 13.2257C14.8576 13.2257 14.6433 13.3145 14.4854 13.4724C14.3274 13.6304 14.2386 13.8447 14.2386 14.0681V15.1295C14.2386 15.363 14.3314 15.5869 14.4965 15.752C14.6615 15.9171 14.8854 16.0098 15.1189 16.0098C15.3524 16.0098 15.5764 15.9171 15.7414 15.752C15.9065 15.5869 15.9992 15.363 15.9992 15.1295V14.1102C16.0058 13.9894 15.9863 13.8686 15.942 13.7561C15.8976 13.6435 15.8297 13.5418 15.7425 13.4579C15.6554 13.374 15.5512 13.3098 15.4371 13.2697C15.323 13.2297 15.2015 13.2147 15.081 13.2257ZM3.91078 17.2945C3.60766 17.2854 3.31422 17.1856 3.06838 17.0081V23.1155C3.06838 23.3501 3.16157 23.5751 3.32745 23.741C3.49333 23.9068 3.71831 24 3.9529 24C4.1875 24 4.41248 23.9068 4.57835 23.741C4.74424 23.5751 4.83742 23.3501 4.83742 23.1155V17.0502C4.56234 17.228 4.23777 17.3136 3.91078 17.2945ZM12.3348 11.3977C12.2206 11.392 12.1066 11.4096 11.9994 11.4493C11.8924 11.4891 11.7945 11.5502 11.7117 11.629C11.6289 11.7079 11.5632 11.8026 11.5182 11.9077C11.4733 12.0127 11.4501 12.1259 11.4503 12.2401V16.9323C11.4503 17.1669 11.5434 17.3919 11.7093 17.5577C11.8753 17.7236 12.1002 17.8168 12.3348 17.8168C12.5694 17.8168 12.7944 17.7236 12.9603 17.5577C13.1261 17.3919 13.2193 17.1669 13.2193 16.9323V12.2991C13.2261 12.1775 13.2063 12.0559 13.1615 11.9427C13.1167 11.8295 13.048 11.7273 12.9599 11.6432C12.8717 11.5592 12.7665 11.4951 12.6514 11.4557C12.5362 11.4162 12.4138 11.4021 12.2927 11.4145L12.3348 11.3977ZM9.53802 13.2004C9.22069 13.1982 8.91186 13.0982 8.6535 12.914V19.0383C8.6535 19.2729 8.74667 19.4979 8.91254 19.6637C9.07849 19.8296 9.30341 19.9228 9.53802 19.9228C9.77263 19.9228 9.99755 19.8296 10.1635 19.6637C10.3294 19.4979 10.4225 19.2729 10.4225 19.0383V12.9224C10.1553 13.1215 9.82907 13.2253 9.4959 13.2173L9.53802 13.2004ZM1.99853 17.8926V0.783433C1.99632 0.57488 1.91191 0.375635 1.76365 0.228948C1.61538 0.0822605 1.41524 -8.42336e-06 1.20668 6.46875e-10H1.02135C0.812787 -8.42336e-06 0.612641 0.0822605 0.464379 0.228948C0.316116 0.375635 0.231708 0.57488 0.229492 0.783433V17.8926C0.229492 18.1026 0.312924 18.304 0.461422 18.4525C0.60992 18.6011 0.811338 18.6845 1.02135 18.6845H1.20668C1.4167 18.6845 1.61811 18.6011 1.7666 18.4525C1.91511 18.304 1.99853 18.1026 1.99853 17.8926ZM4.00345 16.6458H3.81812C3.60811 16.6458 3.40669 16.5624 3.25819 16.4139C3.10969 16.2654 3.02626 16.064 3.02626 15.854V2.82204C3.02849 2.6135 3.11289 2.41424 3.26115 2.26756C3.40941 2.12087 3.60956 2.0386 3.81812 2.03861H4.00345C4.21201 2.0386 4.41216 2.12087 4.56042 2.26756C4.70868 2.41424 4.79309 2.6135 4.7953 2.82204V15.8708C4.7953 16.0808 4.71187 16.2823 4.56337 16.4308C4.41488 16.5793 4.21346 16.6627 4.00345 16.6627V16.6458ZM6.79179 14.6409H6.59804C6.39031 14.6409 6.19099 14.5584 6.04408 14.4115C5.89716 14.2645 5.81461 14.0653 5.81461 13.8575V4.8438C5.81351 4.74021 5.83297 4.63743 5.87181 4.54141C5.91064 4.44538 5.96818 4.35803 6.04105 4.28438C6.11391 4.21074 6.20068 4.15228 6.29629 4.11238C6.39191 4.07249 6.49443 4.05194 6.59804 4.05195H6.79179C7.00037 4.05417 7.1996 4.13857 7.34626 4.28683C7.49301 4.4351 7.57523 4.63524 7.57523 4.8438V13.8575C7.57523 14.0653 7.49267 14.2645 7.34576 14.4115C7.19884 14.5584 6.99961 14.6409 6.79179 14.6409ZM9.58014 12.577H9.40324C9.19466 12.577 8.9945 12.4948 8.84624 12.3481C8.69798 12.2014 8.61357 12.0022 8.61138 11.7936V6.94138C8.60447 6.83322 8.6198 6.7248 8.65653 6.62279C8.69318 6.52086 8.75046 6.42743 8.82468 6.3485C8.89889 6.26948 8.98852 6.20664 9.08809 6.16368C9.18758 6.1208 9.29482 6.09873 9.40324 6.09898H9.58856C9.79858 6.09898 9.99999 6.18238 10.1485 6.33089C10.297 6.47941 10.3804 6.68083 10.3804 6.89084V11.7768C10.3815 11.8815 10.3619 11.9853 10.3225 12.0824C10.2833 12.1794 10.2252 12.2677 10.1515 12.3422C10.0778 12.4166 9.99022 12.4756 9.89351 12.516C9.79689 12.5563 9.69328 12.577 9.58856 12.577H9.58014ZM12.3769 10.7659H12.1916C11.9816 10.7659 11.7802 10.6825 11.6316 10.534C11.4831 10.3855 11.3997 10.184 11.3997 9.97403V8.71885C11.4019 8.51027 11.4863 8.31104 11.6346 8.16438C11.7829 8.01763 11.983 7.93542 12.1916 7.93542H12.3769C12.5855 7.93542 12.7856 8.01763 12.9339 8.16438C13.0822 8.31104 13.1666 8.51027 13.1688 8.71885V9.97403C13.1688 10.1826 13.0865 10.3828 12.9398 10.531C12.7931 10.6793 12.5939 10.7637 12.3853 10.7659H12.3769Z" fill="#94A3B8"/>
<path d="M26.2275 15.9697L28.7764 5.20313H30.2002L30.5254 6.99609L27.8096 18H26.2803L26.2275 15.9697ZM24.918 5.20313L27.0273 15.9697L26.8516 18H25.1465L22.3076 5.20313H24.918ZM32.7666 15.9258L34.8496 5.20313H37.46L34.6299 18H32.9248L32.7666 15.9258ZM31 5.20313L33.5664 16.0137L33.4961 18H31.9668L29.2334 6.98731L29.585 5.20313H31ZM43.709 7.3916L40.2285 18H37.4248L42.1797 5.20313H43.9639L43.709 7.3916ZM46.6006 18L43.1113 7.3916L42.8301 5.20313H44.6318L49.4131 18H46.6006ZM46.4424 13.2363V15.3018H39.6836V13.2363H46.4424ZM54.4932 15.3281L57.5078 5.20313H60.4434L55.9873 18H54.0537L54.4932 15.3281ZM51.7158 5.20313L54.7217 15.3281L55.1787 18H53.2275L48.7978 5.20313H51.7158ZM70.2256 15.9434V18H63.4141V15.9434H70.2256ZM64.2754 5.20313V18H61.6387V5.20313H64.2754ZM69.3379 10.415V12.4189H63.4141V10.415H69.3379ZM70.2168 5.20313V7.26856H63.4141V5.20313H70.2168ZM78.4258 14.6514C78.4258 14.4229 78.3906 14.2178 78.3203 14.0361C78.2559 13.8486 78.1328 13.6787 77.9512 13.5264C77.7695 13.3682 77.5146 13.2129 77.1865 13.0605C76.8584 12.9082 76.4336 12.75 75.9121 12.5859C75.332 12.3984 74.7812 12.1875 74.2598 11.9531C73.7441 11.7188 73.2871 11.4463 72.8887 11.1357C72.4961 10.8193 72.1855 10.4531 71.957 10.0371C71.7344 9.62109 71.623 9.1377 71.623 8.58692C71.623 8.05371 71.7402 7.57031 71.9746 7.13672C72.209 6.69727 72.5371 6.32227 72.959 6.01172C73.3809 5.69531 73.8789 5.45215 74.4531 5.28223C75.0332 5.11231 75.6689 5.02735 76.3603 5.02735C77.3037 5.02735 78.1269 5.19727 78.8301 5.53711C79.5332 5.87695 80.0781 6.34277 80.4648 6.93457C80.8574 7.52637 81.0537 8.20313 81.0537 8.96484H78.4346C78.4346 8.58984 78.3555 8.26172 78.1973 7.98047C78.0449 7.69336 77.8105 7.46777 77.4941 7.30371C77.1836 7.13965 76.791 7.05762 76.3164 7.05762C75.8594 7.05762 75.4785 7.12793 75.1738 7.26856C74.8691 7.40332 74.6406 7.58789 74.4883 7.82227C74.3359 8.05078 74.2598 8.30859 74.2598 8.5957C74.2598 8.8125 74.3125 9.00879 74.418 9.18457C74.5293 9.36035 74.6934 9.52441 74.9102 9.67676C75.1269 9.8291 75.3936 9.97266 75.71 10.1074C76.0264 10.2422 76.3926 10.374 76.8086 10.5029C77.5059 10.7139 78.1182 10.9512 78.6455 11.2148C79.1787 11.4785 79.624 11.7744 79.9814 12.1025C80.3389 12.4307 80.6084 12.8027 80.79 13.2188C80.9717 13.6348 81.0625 14.1064 81.0625 14.6338C81.0625 15.1904 80.9541 15.6885 80.7373 16.1279C80.5205 16.5674 80.207 16.9395 79.7969 17.2441C79.3867 17.5488 78.8975 17.7803 78.3291 17.9385C77.7607 18.0967 77.125 18.1758 76.4219 18.1758C75.7891 18.1758 75.165 18.0937 74.5498 17.9297C73.9346 17.7598 73.375 17.5049 72.8711 17.165C72.373 16.8252 71.9746 16.3916 71.6758 15.8643C71.3769 15.3369 71.2275 14.7129 71.2275 13.9922H73.873C73.873 14.3906 73.9346 14.7275 74.0576 15.0029C74.1807 15.2783 74.3535 15.501 74.5762 15.6709C74.8047 15.8408 75.0742 15.9639 75.3848 16.04C75.7012 16.1162 76.0469 16.1543 76.4219 16.1543C76.8789 16.1543 77.2539 16.0898 77.5469 15.9609C77.8457 15.832 78.0654 15.6533 78.2061 15.4248C78.3525 15.1963 78.4258 14.9385 78.4258 14.6514Z" fill="#94A3B8"/>
</svg>
