<svg width="125" height="24" viewBox="0 0 125 24" fill="none" xmlns="http://www.w3.org/2000/svg">
<path d="M28.0557 24H37.744L13.7441 0H4.05566L28.0557 24Z" fill="#94A3B8"/>
<path d="M18.7217 1.22787e-06L41.8572 23.1355V0H35.5963V7.30432L28.292 0L18.7217 1.22787e-06Z" fill="#94A3B8"/>
<path d="M0 0.803513V24H6.26086V16.6956L13.5651 24H23.1965L0 0.803513Z" fill="#94A3B8"/>
<path d="M54.2031 7.3916L50.7227 18H47.9189L52.6738 5.20313H54.458L54.2031 7.3916ZM57.0947 18L53.6055 7.3916L53.3242 5.20313H55.126L59.9072 18H57.0947ZM56.9365 13.2363V15.3018H50.1777V13.2363H56.9365ZM63.4668 10.5645V18H60.9355V8.49024H63.3174L63.4668 10.5645ZM66.332 8.42871L66.2881 10.7754C66.165 10.7578 66.0156 10.7432 65.8398 10.7314C65.6699 10.7139 65.5146 10.7051 65.374 10.7051C65.0166 10.7051 64.7061 10.752 64.4424 10.8457C64.1846 10.9336 63.9678 11.0654 63.792 11.2412C63.6221 11.417 63.4932 11.6309 63.4053 11.8828C63.3232 12.1348 63.2764 12.4219 63.2646 12.7441L62.7549 12.5859C62.7549 11.9707 62.8164 11.4053 62.9395 10.8896C63.0625 10.3682 63.2412 9.91406 63.4756 9.52734C63.7158 9.14063 64.0088 8.8418 64.3545 8.63086C64.7002 8.41992 65.0957 8.31445 65.541 8.31445C65.6816 8.31445 65.8252 8.32617 65.9717 8.34961C66.1182 8.36719 66.2383 8.39356 66.332 8.42871ZM72.625 8.49024V10.2832H67.0879V8.49024H72.625ZM68.459 6.14356H70.9902V15.1348C70.9902 15.4102 71.0254 15.6211 71.0957 15.7676C71.1719 15.9141 71.2832 16.0166 71.4297 16.0752C71.5762 16.1279 71.7607 16.1543 71.9834 16.1543C72.1416 16.1543 72.2822 16.1484 72.4053 16.1367C72.5342 16.1191 72.6426 16.1016 72.7305 16.084L72.7393 17.9473C72.5225 18.0176 72.2881 18.0732 72.0361 18.1143C71.7842 18.1553 71.5059 18.1758 71.2012 18.1758C70.6445 18.1758 70.1582 18.085 69.7422 17.9033C69.332 17.7158 69.0156 17.417 68.793 17.0068C68.5703 16.5967 68.459 16.0576 68.459 15.3896V6.14356ZM78.8389 15.3281L81.8535 5.20313H84.7891L80.333 18H78.3994L78.8389 15.3281ZM76.0615 5.20313L79.0674 15.3281L79.5244 18H77.5732L73.1436 5.20313H76.0615ZM89.8164 18.1758C89.0781 18.1758 88.416 18.0586 87.8301 17.8242C87.2441 17.584 86.7461 17.2529 86.3359 16.8311C85.9316 16.4092 85.6211 15.9199 85.4043 15.3633C85.1875 14.8008 85.0791 14.2031 85.0791 13.5703V13.2188C85.0791 12.498 85.1816 11.8389 85.3867 11.2412C85.5918 10.6436 85.8848 10.125 86.2656 9.68555C86.6523 9.24609 87.1211 8.90918 87.6719 8.67481C88.2227 8.43457 88.8437 8.31445 89.5352 8.31445C90.209 8.31445 90.8066 8.42578 91.3281 8.64844C91.8496 8.87109 92.2861 9.1875 92.6377 9.59766C92.9951 10.0078 93.2646 10.5 93.4463 11.0742C93.6279 11.6426 93.7187 12.2754 93.7187 12.9727V14.0273H86.1602V12.3398H91.2314V12.1465C91.2314 11.7949 91.167 11.4814 91.0381 11.2061C90.915 10.9248 90.7275 10.7021 90.4756 10.5381C90.2236 10.374 89.9014 10.292 89.5088 10.292C89.1748 10.292 88.8877 10.3652 88.6475 10.5117C88.4072 10.6582 88.2109 10.8633 88.0586 11.127C87.9121 11.3906 87.8008 11.7012 87.7246 12.0586C87.6543 12.4102 87.6191 12.7969 87.6191 13.2188V13.5703C87.6191 13.9512 87.6719 14.3027 87.7773 14.625C87.8887 14.9473 88.0439 15.2256 88.2432 15.46C88.4482 15.6943 88.6943 15.876 88.9814 16.0049C89.2744 16.1338 89.6055 16.1982 89.9746 16.1982C90.4316 16.1982 90.8564 16.1104 91.249 15.9346C91.6475 15.7529 91.9902 15.4805 92.2773 15.1172L93.5078 16.4531C93.3086 16.7402 93.0361 17.0156 92.6904 17.2793C92.3506 17.543 91.9404 17.7598 91.46 17.9297C90.9795 18.0937 90.4316 18.1758 89.8164 18.1758ZM97.6387 10.5205V18H95.1074V8.49024H97.4805L97.6387 10.5205ZM97.2695 12.9111H96.584C96.584 12.208 96.6748 11.5752 96.8564 11.0127C97.0381 10.4443 97.293 9.96094 97.6211 9.5625C97.9492 9.1582 98.3389 8.85059 98.79 8.63965C99.2471 8.42285 99.7568 8.31445 100.319 8.31445C100.765 8.31445 101.172 8.37891 101.541 8.50781C101.91 8.63672 102.227 8.8418 102.49 9.12305C102.76 9.4043 102.965 9.77637 103.105 10.2393C103.252 10.7021 103.325 11.2676 103.325 11.9355V18H100.776V11.9268C100.776 11.5049 100.718 11.1768 100.601 10.9424C100.483 10.708 100.311 10.5439 100.082 10.4502C99.8594 10.3506 99.584 10.3008 99.2559 10.3008C98.916 10.3008 98.6201 10.3682 98.3682 10.5029C98.1221 10.6377 97.917 10.8252 97.7529 11.0654C97.5947 11.2998 97.4746 11.5752 97.3926 11.8916C97.3105 12.208 97.2695 12.5479 97.2695 12.9111ZM110.875 15.7236V8.49024H113.406V18H111.024L110.875 15.7236ZM111.156 13.7725L111.903 13.7549C111.903 14.3877 111.83 14.9766 111.684 15.5215C111.537 16.0605 111.317 16.5293 111.024 16.9277C110.731 17.3203 110.362 17.6279 109.917 17.8506C109.472 18.0674 108.947 18.1758 108.344 18.1758C107.881 18.1758 107.453 18.1113 107.061 17.9824C106.674 17.8477 106.34 17.6396 106.059 17.3584C105.783 17.0713 105.566 16.7051 105.408 16.2598C105.256 15.8086 105.18 15.2666 105.18 14.6338V8.49024H107.711V14.6514C107.711 14.9326 107.743 15.1699 107.808 15.3633C107.878 15.5566 107.975 15.7148 108.098 15.8379C108.221 15.9609 108.364 16.0488 108.528 16.1016C108.698 16.1543 108.886 16.1807 109.091 16.1807C109.612 16.1807 110.022 16.0752 110.321 15.8643C110.626 15.6533 110.84 15.3662 110.963 15.0029C111.092 14.6338 111.156 14.2236 111.156 13.7725ZM119.717 18.1758C118.979 18.1758 118.316 18.0586 117.73 17.8242C117.145 17.584 116.646 17.2529 116.236 16.8311C115.832 16.4092 115.521 15.9199 115.305 15.3633C115.088 14.8008 114.979 14.2031 114.979 13.5703V13.2188C114.979 12.498 115.082 11.8389 115.287 11.2412C115.492 10.6436 115.785 10.125 116.166 9.68555C116.553 9.24609 117.021 8.90918 117.572 8.67481C118.123 8.43457 118.744 8.31445 119.436 8.31445C120.109 8.31445 120.707 8.42578 121.229 8.64844C121.75 8.87109 122.187 9.1875 122.538 9.59766C122.895 10.0078 123.165 10.5 123.347 11.0742C123.528 11.6426 123.619 12.2754 123.619 12.9727V14.0273H116.061V12.3398H121.132V12.1465C121.132 11.7949 121.067 11.4814 120.938 11.2061C120.815 10.9248 120.628 10.7021 120.376 10.5381C120.124 10.374 119.802 10.292 119.409 10.292C119.075 10.292 118.788 10.3652 118.548 10.5117C118.308 10.6582 118.111 10.8633 117.959 11.127C117.812 11.3906 117.701 11.7012 117.625 12.0586C117.555 12.4102 117.52 12.7969 117.52 13.2188V13.5703C117.52 13.9512 117.572 14.3027 117.678 14.625C117.789 14.9473 117.944 15.2256 118.144 15.46C118.349 15.6943 118.595 15.876 118.882 16.0049C119.175 16.1338 119.506 16.1982 119.875 16.1982C120.332 16.1982 120.757 16.1104 121.149 15.9346C121.548 15.7529 121.891 15.4805 122.178 15.1172L123.408 16.4531C123.209 16.7402 122.937 17.0156 122.591 17.2793C122.251 17.543 121.841 17.7598 121.36 17.9297C120.88 18.0937 120.332 18.1758 119.717 18.1758Z" fill="#94A3B8"/>
</svg>
