<svg width="132" height="24" viewBox="0 0 132 24" fill="none" xmlns="http://www.w3.org/2000/svg">
<path d="M17.1416 19.8634L1.08216 8.78559C-0.545271 7.66304 0.00794843 5.32572 2.03731 4.77608L19.1056 0.143541C19.4672 0.0130785 19.8546 -0.0292723 20.2359 0.0200071C20.6171 0.0692866 20.981 0.208773 21.2976 0.426892C21.614 0.64501 21.874 0.935468 22.0557 1.27416C22.2374 1.61285 22.3358 1.99 22.3426 2.37432L21.3311 18.0838C21.2111 19.9484 18.7691 20.986 17.1416 19.8634Z" fill="#94A3B8"/>
<path d="M12.0484 22.5978L2.58729 4.09546C2.37102 3.67218 2.27585 3.19739 2.31228 2.72345C2.3487 2.24952 2.51531 1.79485 2.79372 1.40959C3.07214 1.02434 3.45154 0.723451 3.8901 0.540119C4.32865 0.356787 4.80932 0.298135 5.27909 0.370635L22.8129 3.07674C23.2166 3.13906 23.5997 3.2963 23.9308 3.53553C24.2619 3.77478 24.5314 4.08918 24.7173 4.4529C24.9032 4.81662 25.0001 5.21926 25 5.62773C24.9999 6.03619 24.9029 6.43881 24.717 6.80247L16.6398 22.5987C16.4229 23.0208 16.0938 23.3749 15.6888 23.6221C15.2837 23.8693 14.8184 24 14.3438 23.9999C13.8693 23.9998 13.404 23.869 12.999 23.6216C12.594 23.3742 12.2652 23.02 12.0484 22.5978Z" fill="#94A3B8"/>
<path d="M17.8154 6.54526L14.4488 6.00006L10.3154 7.17765L11.9653 10.5642L15.8287 13.3615C15.9139 13.4225 16.0077 13.4693 16.1066 13.5001L17.5741 10.489L17.8154 6.54526Z" fill="white"/>
<path d="M38.8047 14.6514C38.8047 14.4229 38.7695 14.2178 38.6992 14.0361C38.6348 13.8486 38.5117 13.6787 38.3301 13.5264C38.1484 13.3682 37.8936 13.2129 37.5654 13.0605C37.2373 12.9082 36.8125 12.75 36.291 12.5859C35.7109 12.3984 35.1602 12.1875 34.6387 11.9531C34.123 11.7188 33.666 11.4463 33.2676 11.1357C32.875 10.8193 32.5645 10.4531 32.3359 10.0371C32.1133 9.62109 32.002 9.1377 32.002 8.58692C32.002 8.05371 32.1191 7.57031 32.3535 7.13672C32.5879 6.69727 32.916 6.32227 33.3379 6.01172C33.7598 5.69531 34.2578 5.45215 34.832 5.28223C35.4121 5.11231 36.0479 5.02735 36.7393 5.02735C37.6826 5.02735 38.5059 5.19727 39.209 5.53711C39.9121 5.87695 40.457 6.34277 40.8437 6.93457C41.2363 7.52637 41.4326 8.20313 41.4326 8.96484H38.8135C38.8135 8.58984 38.7344 8.26172 38.5762 7.98047C38.4238 7.69336 38.1895 7.46777 37.873 7.30371C37.5625 7.13965 37.1699 7.05762 36.6953 7.05762C36.2383 7.05762 35.8574 7.12793 35.5527 7.26856C35.248 7.40332 35.0195 7.58789 34.8672 7.82227C34.7148 8.05078 34.6387 8.30859 34.6387 8.5957C34.6387 8.8125 34.6914 9.00879 34.7969 9.18457C34.9082 9.36035 35.0723 9.52441 35.2891 9.67676C35.5059 9.8291 35.7725 9.97266 36.0889 10.1074C36.4053 10.2422 36.7715 10.374 37.1875 10.5029C37.8848 10.7139 38.4971 10.9512 39.0244 11.2148C39.5576 11.4785 40.0029 11.7744 40.3604 12.1025C40.7178 12.4307 40.9873 12.8027 41.1689 13.2188C41.3506 13.6348 41.4414 14.1064 41.4414 14.6338C41.4414 15.1904 41.333 15.6885 41.1162 16.1279C40.8994 16.5674 40.5859 16.9395 40.1758 17.2441C39.7656 17.5488 39.2764 17.7803 38.708 17.9385C38.1396 18.0967 37.5039 18.1758 36.8008 18.1758C36.168 18.1758 35.5439 18.0937 34.9287 17.9297C34.3135 17.7598 33.7539 17.5049 33.25 17.165C32.752 16.8252 32.3535 16.3916 32.0547 15.8643C31.7559 15.3369 31.6064 14.7129 31.6064 13.9922H34.252C34.252 14.3906 34.3135 14.7275 34.4365 15.0029C34.5596 15.2783 34.7324 15.501 34.9551 15.6709C35.1836 15.8408 35.4531 15.9639 35.7637 16.04C36.0801 16.1162 36.4258 16.1543 36.8008 16.1543C37.2578 16.1543 37.6328 16.0898 37.9258 15.9609C38.2246 15.832 38.4443 15.6533 38.585 15.4248C38.7314 15.1963 38.8047 14.9385 38.8047 14.6514ZM45.6074 10.459V18H43.0674V8.49024H45.4492L45.6074 10.459ZM45.2559 12.9111H44.5527C44.5527 12.249 44.6318 11.6396 44.79 11.083C44.9541 10.5205 45.1914 10.0342 45.502 9.62402C45.8184 9.20801 46.208 8.88574 46.6709 8.65723C47.1338 8.42871 47.6699 8.31445 48.2793 8.31445C48.7012 8.31445 49.0879 8.37891 49.4395 8.50781C49.791 8.63086 50.0928 8.82715 50.3447 9.09668C50.6025 9.36035 50.8018 9.70606 50.9424 10.1338C51.083 10.5557 51.1533 11.0625 51.1533 11.6543V18H48.6221V11.9355C48.6221 11.502 48.5635 11.168 48.4463 10.9336C48.3291 10.6992 48.1621 10.5352 47.9453 10.4414C47.7344 10.3477 47.4795 10.3008 47.1807 10.3008C46.8525 10.3008 46.5654 10.3682 46.3193 10.5029C46.0791 10.6377 45.8799 10.8252 45.7217 11.0654C45.5635 11.2998 45.4463 11.5752 45.3701 11.8916C45.2939 12.208 45.2559 12.5479 45.2559 12.9111ZM50.916 12.6211L50.0107 12.7354C50.0107 12.1143 50.0869 11.5371 50.2393 11.0039C50.3975 10.4707 50.6289 10.002 50.9336 9.59766C51.2441 9.19336 51.6279 8.87988 52.085 8.65723C52.542 8.42871 53.0693 8.31445 53.667 8.31445C54.124 8.31445 54.54 8.38184 54.915 8.5166C55.29 8.64551 55.6094 8.85352 55.873 9.14063C56.1426 9.42188 56.3477 9.79102 56.4883 10.248C56.6348 10.7051 56.708 11.2646 56.708 11.9268V18H54.168V11.9268C54.168 11.4873 54.1094 11.1533 53.9922 10.9248C53.8809 10.6904 53.7168 10.5293 53.5 10.4414C53.2891 10.3477 53.0371 10.3008 52.7441 10.3008C52.4395 10.3008 52.1728 10.3623 51.9443 10.4854C51.7158 10.6025 51.5254 10.7666 51.373 10.9775C51.2207 11.1885 51.1064 11.4346 51.0303 11.7158C50.9541 11.9912 50.916 12.293 50.916 12.6211ZM63.8008 15.8555V11.6191C63.8008 11.3145 63.751 11.0537 63.6514 10.8369C63.5518 10.6143 63.3965 10.4414 63.1855 10.3184C62.9805 10.1953 62.7139 10.1338 62.3857 10.1338C62.1045 10.1338 61.8613 10.1836 61.6562 10.2832C61.4512 10.377 61.293 10.5146 61.1816 10.6963C61.0703 10.8721 61.0146 11.0801 61.0146 11.3203H58.4834C58.4834 10.916 58.5771 10.5322 58.7646 10.1689C58.9521 9.80566 59.2246 9.48633 59.582 9.21094C59.9394 8.92969 60.3643 8.70996 60.8564 8.55176C61.3545 8.39356 61.9111 8.31445 62.5264 8.31445C63.2646 8.31445 63.9209 8.4375 64.4951 8.68359C65.0693 8.92969 65.5205 9.29883 65.8486 9.79102C66.1826 10.2832 66.3496 10.8984 66.3496 11.6367V15.7061C66.3496 16.2275 66.3818 16.6553 66.4463 16.9893C66.5107 17.3174 66.6045 17.6045 66.7275 17.8506V18H64.1699C64.0469 17.7422 63.9531 17.4199 63.8887 17.0332C63.8301 16.6406 63.8008 16.248 63.8008 15.8555ZM64.1348 12.208L64.1523 13.6406H62.7373C62.4033 13.6406 62.1133 13.6787 61.8672 13.7549C61.6211 13.8311 61.4189 13.9395 61.2607 14.0801C61.1025 14.2148 60.9853 14.373 60.9092 14.5547C60.8389 14.7363 60.8037 14.9355 60.8037 15.1523C60.8037 15.3691 60.8535 15.5654 60.9531 15.7412C61.0527 15.9111 61.1963 16.0459 61.3838 16.1455C61.5713 16.2393 61.791 16.2861 62.043 16.2861C62.4238 16.2861 62.7549 16.21 63.0361 16.0576C63.3174 15.9053 63.5342 15.7178 63.6865 15.4951C63.8447 15.2725 63.9268 15.0615 63.9326 14.8623L64.6006 15.9346C64.5068 16.1748 64.3779 16.4238 64.2139 16.6816C64.0557 16.9395 63.8535 17.1826 63.6074 17.4111C63.3613 17.6338 63.0654 17.8184 62.7197 17.9648C62.374 18.1055 61.9639 18.1758 61.4893 18.1758C60.8857 18.1758 60.3379 18.0557 59.8457 17.8154C59.3594 17.5693 58.9727 17.2324 58.6855 16.8047C58.4043 16.3711 58.2637 15.8789 58.2637 15.3281C58.2637 14.8301 58.3574 14.3877 58.5449 14.001C58.7324 13.6143 59.0078 13.2891 59.3711 13.0254C59.7402 12.7559 60.2002 12.5537 60.751 12.4189C61.3018 12.2783 61.9404 12.208 62.667 12.208H64.1348ZM70.832 10.5645V18H68.3008V8.49024H70.6826L70.832 10.5645ZM73.6973 8.42871L73.6533 10.7754C73.5303 10.7578 73.3809 10.7432 73.2051 10.7314C73.0352 10.7139 72.8799 10.7051 72.7393 10.7051C72.3818 10.7051 72.0713 10.752 71.8076 10.8457C71.5498 10.9336 71.333 11.0654 71.1572 11.2412C70.9873 11.417 70.8584 11.6309 70.7705 11.8828C70.6885 12.1348 70.6416 12.4219 70.6299 12.7441L70.1201 12.5859C70.1201 11.9707 70.1816 11.4053 70.3047 10.8896C70.4277 10.3682 70.6064 9.91406 70.8408 9.52734C71.0811 9.14063 71.374 8.8418 71.7197 8.63086C72.0654 8.41992 72.4609 8.31445 72.9062 8.31445C73.0469 8.31445 73.1904 8.32617 73.3369 8.34961C73.4834 8.36719 73.6035 8.39356 73.6973 8.42871ZM79.9902 8.49024V10.2832H74.4531V8.49024H79.9902ZM75.8242 6.14356H78.3555V15.1348C78.3555 15.4102 78.3906 15.6211 78.4609 15.7676C78.5371 15.9141 78.6484 16.0166 78.7949 16.0752C78.9414 16.1279 79.126 16.1543 79.3486 16.1543C79.5068 16.1543 79.6475 16.1484 79.7705 16.1367C79.8994 16.1191 80.0078 16.1016 80.0957 16.084L80.1045 17.9473C79.8877 18.0176 79.6533 18.0732 79.4014 18.1143C79.1494 18.1553 78.8711 18.1758 78.5664 18.1758C78.0098 18.1758 77.5234 18.085 77.1074 17.9033C76.6973 17.7158 76.3809 17.417 76.1582 17.0068C75.9355 16.5967 75.8242 16.0576 75.8242 15.3896V6.14356ZM84.2266 5.20313V18H81.5898V5.20313H84.2266ZM89.3242 10.6699V12.7266H83.5059V10.6699H89.3242ZM89.9394 5.20313V7.26856H83.5059V5.20313H89.9394ZM93.9824 8.49024V18H91.4424V8.49024H93.9824ZM91.2842 6.01172C91.2842 5.64258 91.4131 5.33789 91.6709 5.09766C91.9287 4.85742 92.2744 4.73731 92.708 4.73731C93.1357 4.73731 93.4785 4.85742 93.7363 5.09766C94 5.33789 94.1318 5.64258 94.1318 6.01172C94.1318 6.38086 94 6.68555 93.7363 6.92578C93.4785 7.16602 93.1357 7.28613 92.708 7.28613C92.2744 7.28613 91.9287 7.16602 91.6709 6.92578C91.4131 6.68555 91.2842 6.38086 91.2842 6.01172ZM98.5527 10.5205V18H96.0215V8.49024H98.3945L98.5527 10.5205ZM98.1836 12.9111H97.498C97.498 12.208 97.5889 11.5752 97.7705 11.0127C97.9521 10.4443 98.207 9.96094 98.5351 9.5625C98.8633 9.1582 99.2529 8.85059 99.7041 8.63965C100.161 8.42285 100.671 8.31445 101.233 8.31445C101.679 8.31445 102.086 8.37891 102.455 8.50781C102.824 8.63672 103.141 8.8418 103.404 9.12305C103.674 9.4043 103.879 9.77637 104.02 10.2393C104.166 10.7021 104.239 11.2676 104.239 11.9355V18H101.69V11.9268C101.69 11.5049 101.632 11.1768 101.515 10.9424C101.397 10.708 101.225 10.5439 100.996 10.4502C100.773 10.3506 100.498 10.3008 100.17 10.3008C99.8301 10.3008 99.5342 10.3682 99.2822 10.5029C99.0361 10.6377 98.831 10.8252 98.667 11.0654C98.5088 11.2998 98.3887 11.5752 98.3066 11.8916C98.2246 12.208 98.1836 12.5479 98.1836 12.9111ZM111.78 15.9258V4.5H114.329V18H112.035L111.78 15.9258ZM105.769 13.3594V13.1748C105.769 12.4482 105.851 11.7891 106.015 11.1973C106.179 10.5996 106.419 10.0869 106.735 9.65918C107.052 9.23145 107.441 8.90039 107.904 8.66602C108.367 8.43164 108.895 8.31445 109.486 8.31445C110.043 8.31445 110.529 8.43164 110.945 8.66602C111.367 8.90039 111.725 9.23438 112.018 9.66797C112.316 10.0957 112.557 10.6025 112.738 11.1885C112.92 11.7686 113.052 12.4043 113.134 13.0957V13.5C113.052 14.1621 112.92 14.7773 112.738 15.3457C112.557 15.9141 112.316 16.4121 112.018 16.8398C111.725 17.2617 111.367 17.5898 110.945 17.8242C110.523 18.0586 110.031 18.1758 109.469 18.1758C108.877 18.1758 108.35 18.0557 107.887 17.8154C107.43 17.5752 107.043 17.2383 106.727 16.8047C106.416 16.3711 106.179 15.8613 106.015 15.2754C105.851 14.6895 105.769 14.0508 105.769 13.3594ZM108.3 13.1748V13.3594C108.3 13.752 108.329 14.1182 108.388 14.458C108.452 14.7979 108.555 15.0996 108.695 15.3633C108.842 15.6211 109.029 15.8232 109.258 15.9697C109.492 16.1104 109.776 16.1807 110.11 16.1807C110.544 16.1807 110.901 16.084 111.183 15.8906C111.464 15.6914 111.678 15.4189 111.824 15.0732C111.977 14.7275 112.064 14.3291 112.088 13.8779V12.7266C112.07 12.3574 112.018 12.0264 111.93 11.7334C111.848 11.4346 111.725 11.1797 111.561 10.9688C111.402 10.7578 111.203 10.5938 110.963 10.4766C110.729 10.3594 110.45 10.3008 110.128 10.3008C109.8 10.3008 109.519 10.377 109.284 10.5293C109.05 10.6758 108.859 10.8779 108.713 11.1357C108.572 11.3936 108.467 11.6982 108.396 12.0498C108.332 12.3955 108.3 12.7705 108.3 13.1748ZM120.684 18.1758C119.945 18.1758 119.283 18.0586 118.697 17.8242C118.111 17.584 117.613 17.2529 117.203 16.8311C116.799 16.4092 116.488 15.9199 116.271 15.3633C116.055 14.8008 115.946 14.2031 115.946 13.5703V13.2188C115.946 12.498 116.049 11.8389 116.254 11.2412C116.459 10.6436 116.752 10.125 117.133 9.68555C117.52 9.24609 117.988 8.90918 118.539 8.67481C119.09 8.43457 119.711 8.31445 120.402 8.31445C121.076 8.31445 121.674 8.42578 122.195 8.64844C122.717 8.87109 123.153 9.1875 123.505 9.59766C123.862 10.0078 124.132 10.5 124.313 11.0742C124.495 11.6426 124.586 12.2754 124.586 12.9727V14.0273H117.027V12.3398H122.099V12.1465C122.099 11.7949 122.034 11.4814 121.905 11.2061C121.782 10.9248 121.595 10.7021 121.343 10.5381C121.091 10.374 120.769 10.292 120.376 10.292C120.042 10.292 119.755 10.3652 119.515 10.5117C119.274 10.6582 119.078 10.8633 118.926 11.127C118.779 11.3906 118.668 11.7012 118.592 12.0586C118.521 12.4102 118.486 12.7969 118.486 13.2188V13.5703C118.486 13.9512 118.539 14.3027 118.645 14.625C118.756 14.9473 118.911 15.2256 119.11 15.46C119.315 15.6943 119.562 15.876 119.849 16.0049C120.142 16.1338 120.473 16.1982 120.842 16.1982C121.299 16.1982 121.724 16.1104 122.116 15.9346C122.515 15.7529 122.857 15.4805 123.145 15.1172L124.375 16.4531C124.176 16.7402 123.903 17.0156 123.558 17.2793C123.218 17.543 122.808 17.7598 122.327 17.9297C121.847 18.0937 121.299 18.1758 120.684 18.1758ZM128.559 10.5645V18H126.027V8.49024H128.409L128.559 10.5645ZM131.424 8.42871L131.38 10.7754C131.257 10.7578 131.107 10.7432 130.932 10.7314C130.762 10.7139 130.606 10.7051 130.466 10.7051C130.108 10.7051 129.798 10.752 129.534 10.8457C129.276 10.9336 129.06 11.0654 128.884 11.2412C128.714 11.417 128.585 11.6309 128.497 11.8828C128.415 12.1348 128.368 12.4219 128.356 12.7441L127.847 12.5859C127.847 11.9707 127.908 11.4053 128.031 10.8896C128.154 10.3682 128.333 9.91406 128.567 9.52734C128.808 9.14063 129.101 8.8418 129.446 8.63086C129.792 8.41992 130.187 8.31445 130.633 8.31445C130.773 8.31445 130.917 8.32617 131.063 8.34961C131.21 8.36719 131.33 8.39356 131.424 8.42871Z" fill="#94A3B8"/>
</svg>
